<?xml version="1.0" encoding="iso-8859-1"?>
<!-- Generator: Adobe Illustrator 19.0.0, SVG Export Plug-In . SVG Version: 6.00 Build 0)  -->
<svg version="1.1" id="Capa_1" xmlns="http://www.w3.org/2000/svg" xmlns:xlink="http://www.w3.org/1999/xlink" x="0px" y="0px"
	 viewBox="0 0 512.001 512.001" style="enable-background:new 0 0 512.001 512.001;" xml:space="preserve">
<g>
	<g>
		<path d="M60.86,4.268H51.2c-27.947,0-48.99,20.796-51.2,51.2v392.533c0,4.591,3.635,8.354,8.218,8.533c0.102,0,0.213,0,0.316,0
			c4.454,0,8.183-3.439,8.508-7.91c1.502-20.463,15.548-34.756,34.159-34.756h9.66c13.491,0,24.474-10.982,24.474-24.474V28.741
			C85.333,15.25,74.351,4.268,60.86,4.268z M68.267,389.394c0,4.079-3.328,7.407-7.407,7.407H51.2
			c-13.406,0-25.225,4.787-34.133,13.056L17.041,56.091C18.543,35.628,32.589,21.334,51.2,21.334h9.66
			c4.079,0,7.407,3.328,7.407,7.407V389.394z"/>
	</g>
</g>
<g>
	<g>
		<path d="M511.974,54.845C509.79,25.063,488.747,4.268,460.8,4.268h-9.66c-13.491,0-24.474,10.982-24.474,24.474v360.653
			c0,13.491,10.982,24.474,24.474,24.474h9.66c18.611,0,32.657,14.293,34.159,34.756c0.333,4.471,4.062,7.91,8.508,7.91
			c0.102,0,0.205,0,0.316,0c4.582-0.179,8.218-3.942,8.218-8.533L511.974,54.845z M494.933,409.856
			c-8.909-8.269-20.727-13.056-34.133-13.056h-9.66c-4.079,0-7.407-3.328-7.407-7.407V28.741c0-4.079,3.328-7.407,7.407-7.407h9.66
			c18.611,0,32.657,14.293,34.133,34.133V409.856z"/>
	</g>
</g>
<g>
	<g>
		<path d="M460.8,396.801h-9.66c-4.079,0-7.407-3.328-7.407-7.407V55.467c0-4.71-3.823-8.533-8.533-8.533H76.8
			c-4.71,0-8.533,3.823-8.533,8.533v333.926c0,4.079-3.328,7.407-7.407,7.407H51.2c-27.947,0-48.99,20.796-51.2,51.2
			c0,32.939,26.795,59.733,59.733,59.733h392.533c32.939,0,59.733-26.795,59.708-60.356
			C509.79,417.597,488.747,396.801,460.8,396.801z M452.267,490.668H59.733c-23.526,0-42.667-19.14-42.692-42.044
			c1.502-20.463,15.548-34.756,34.159-34.756h9.66c13.491,0,24.474-10.982,24.474-24.474V64.001h341.333v325.393
			c0,13.491,10.982,24.474,24.474,24.474h9.66c18.611,0,32.657,14.293,34.133,34.133
			C494.933,471.527,475.793,490.668,452.267,490.668z"/>
	</g>
</g>
<g>
	<g>
		<path d="M279.1,160.368l-59.733-59.733c-3.336-3.337-8.73-3.337-12.066,0c-3.336,3.337-3.337,8.73,0,12.066l59.733,59.733
			c1.664,1.664,3.849,2.5,6.033,2.5c2.185,0,4.369-0.836,6.033-2.5C282.436,169.098,282.436,163.704,279.1,160.368z"/>
	</g>
</g>
<g>
	<g>
		<path d="M279.1,100.634c-3.337-3.337-8.73-3.337-12.066,0L207.3,160.368c-3.337,3.336-3.337,8.73,0,12.066
			c1.664,1.664,3.849,2.5,6.033,2.5c2.185,0,4.369-0.836,6.033-2.5l59.734-59.733C282.436,109.363,282.436,103.97,279.1,100.634z"/>
	</g>
</g>
<g>
	<g>
		<path d="M179.2,132.267h-17.067c-4.71,0-8.533,3.823-8.533,8.533s3.823,8.533,8.533,8.533H179.2c4.71,0,8.533-3.823,8.533-8.533
			S183.91,132.267,179.2,132.267z"/>
	</g>
</g>
<g>
	<g>
		<path d="M119.467,132.267H102.4c-4.71,0-8.533,3.823-8.533,8.533s3.823,8.533,8.533,8.533h17.067c4.71,0,8.533-3.823,8.533-8.533
			S124.177,132.267,119.467,132.267z"/>
	</g>
</g>
<g>
	<g>
		<path d="M440.465,479.634c-1.544-4.454-6.391-6.818-10.854-5.282c-4.454,1.545-6.818,6.4-5.282,10.854
			c1.553,4.497,2.338,9.199,2.338,13.995c0,4.71,3.823,8.533,8.533,8.533c4.71,0,8.533-3.823,8.533-8.533
			C443.733,492.511,442.633,485.923,440.465,479.634z"/>
	</g>
</g>
<g>
	<g>
		<path d="M204.714,295.868c-1.552-4.445-6.408-6.783-10.871-5.239c-11.486,4.011-21.811,10.334-30.703,18.79
			c-3.422,3.251-3.55,8.653-0.307,12.066c1.681,1.766,3.934,2.654,6.187,2.654c2.108,0,4.224-0.777,5.879-2.347
			c7.023-6.682,15.522-11.887,24.576-15.053C203.929,305.186,206.276,300.313,204.714,295.868z"/>
	</g>
</g>
<g>
	<g>
		<path d="M259.49,439.467h-32.666c-4.71,0-8.533,3.823-8.533,8.533c0,4.71,3.823,8.533,8.533,8.533h32.666
			c4.71,0,8.533-3.823,8.533-8.533C268.023,443.29,264.201,439.467,259.49,439.467z"/>
	</g>
</g>
<g>
	<g>
		<path d="M150.408,341.871c-4.514-1.323-9.259,1.306-10.564,5.837c-2.202,7.612-3.311,15.514-3.311,23.492
			c0,4.173,0.307,8.354,0.913,12.442c0.631,4.241,4.275,7.287,8.431,7.287c0.418,0,0.836-0.026,1.254-0.085
			c4.668-0.691,7.886-5.035,7.194-9.694c-0.478-3.268-0.725-6.613-0.725-9.95c0-6.374,0.887-12.689,2.645-18.765
			C157.551,347.905,154.939,343.176,150.408,341.871z"/>
	</g>
</g>
<g>
	<g>
		<path d="M191.164,432.137c-8.576-4.361-16.333-10.641-22.409-18.167c-2.961-3.661-8.328-4.232-11.998-1.271
			c-3.661,2.961-4.232,8.328-1.271,11.998c7.578,9.378,17.254,17.212,27.964,22.656c1.237,0.623,2.56,0.922,3.857,0.922
			c3.106,0,6.11-1.707,7.603-4.668C197.043,439.408,195.371,434.27,191.164,432.137z"/>
	</g>
</g>
<g>
	<g>
		<path d="M269.662,285.868h-32.666c-4.71,0-8.533,3.823-8.533,8.533c0,4.71,3.823,8.533,8.533,8.533h32.666
			c4.71,0,8.533-3.823,8.533-8.533C278.195,289.691,274.372,285.868,269.662,285.868z"/>
	</g>
</g>
<g>
	<g>
		<path d="M349.431,282.215c-2.141-4.199-7.27-5.889-11.477-3.73c-8.704,4.437-18.065,6.895-27.827,7.313
			c-4.71,0.205-8.363,4.181-8.166,8.892c0.196,4.591,3.977,8.175,8.516,8.175c0.128,0,0.256-0.008,0.375-0.017
			c12.22-0.521,23.945-3.601,34.85-9.156C349.9,291.55,351.564,286.413,349.431,282.215z"/>
	</g>
</g>
<g>
	<g>
		<path d="M384.418,220.27c-4.676-0.674-8.994,2.543-9.677,7.202c-1.417,9.643-4.821,18.705-10.146,26.94
			c-2.551,3.96-1.416,9.242,2.543,11.802c1.434,0.922,3.038,1.365,4.625,1.365c2.807,0,5.547-1.374,7.168-3.908
			c6.647-10.308,10.923-21.649,12.689-33.724C392.303,225.288,389.077,220.954,384.418,220.27z"/>
	</g>
</g>
<g>
	<g>
		<path d="M409.404,445.116c-7.979-3.746-16.521-5.649-25.404-5.649h-10.18c-4.71,0-8.533,3.823-8.533,8.533
			c0,4.71,3.823,8.533,8.533,8.533H384c6.357,0,12.45,1.357,18.133,4.028c1.169,0.555,2.406,0.811,3.627,0.811
			c3.2,0,6.272-1.818,7.731-4.898C415.497,452.207,413.67,447.121,409.404,445.116z"/>
	</g>
</g>
<g>
	<g>
		<path d="M386.202,185.422c-4.548-11.102-11.588-21.367-20.352-29.687c-3.413-3.243-8.823-3.106-12.066,0.316
			c-3.243,3.422-3.098,8.823,0.316,12.066c7.031,6.673,12.672,14.899,16.316,23.791c1.356,3.302,4.539,5.298,7.901,5.298
			c1.075,0,2.176-0.205,3.226-0.648C385.904,194.766,387.986,189.782,386.202,185.422z"/>
	</g>
</g>
<g>
	<g>
		<path d="M332.988,439.467h-32.666c-4.71,0-8.533,3.823-8.533,8.533c0,4.71,3.823,8.533,8.533,8.533h32.666
			c4.71,0,8.533-3.823,8.533-8.533C341.521,443.29,337.698,439.467,332.988,439.467z"/>
	</g>
</g>
<g>
	<g>
		<path d="M326.042,134.374c-6.153-1.399-12.484-2.108-18.842-2.108c-4.71,0-8.533,3.823-8.533,8.533
			c0,4.71,3.823,8.533,8.533,8.533c5.077,0,10.138,0.563,15.044,1.681c0.64,0.145,1.271,0.213,1.903,0.213
			c3.891,0,7.415-2.679,8.32-6.639C333.508,139.999,330.633,135.425,326.042,134.374z"/>
	</g>
</g>
<g>
	<g>
		<path d="M357.24,401.033l-29.867-51.2c-3.063-5.24-11.691-5.24-14.746,0l-29.867,51.2c-2.372,4.07-0.998,9.301,3.072,11.674
			c4.079,2.381,9.301,0.998,11.674-3.072L320,371.072l22.494,38.562c1.587,2.714,4.446,4.232,7.381,4.232
			c1.459,0,2.935-0.375,4.292-1.16C358.238,410.326,359.612,405.103,357.24,401.033z"/>
	</g>
</g>
<g>
	<g>
		<path d="M320.734,234.564l-8.926-15.3c-3.729-6.383-10.368-10.197-17.766-10.197c-7.398,0-14.037,3.814-17.758,10.206l-8.926,15.3
			c-3.755,6.434-3.78,14.14-0.068,20.599c3.703,6.46,10.368,10.317,17.826,10.317h17.852c7.45,0,14.123-3.866,17.835-10.325
			C324.514,248.704,324.489,240.999,320.734,234.564z M305.988,246.665c-0.367,0.657-1.263,1.758-3.021,1.758h-17.852
			c-1.758,0-2.654-1.101-3.029-1.758s-0.879-1.98,0.008-3.499l8.926-15.3c0.887-1.51,2.278-1.732,3.021-1.732
			c0.742,0,2.133,0.222,3.012,1.732l8.926,15.3C306.867,244.686,306.364,246.008,305.988,246.665z"/>
	</g>
</g>
<g>
	<g>
		<path d="M252.467,362.564l-8.926-15.3c-3.729-6.383-10.368-10.197-17.766-10.197s-14.037,3.814-17.758,10.206l-8.926,15.3
			c-3.755,6.434-3.78,14.14-0.068,20.599c3.703,6.46,10.368,10.317,17.826,10.317h17.852c7.45,0,14.123-3.866,17.835-10.325
			C256.247,376.704,256.222,368.999,252.467,362.564z M237.722,374.665c-0.367,0.657-1.263,1.758-3.021,1.758h-17.852
			c-1.758,0-2.654-1.101-3.029-1.758c-0.375-0.657-0.879-1.98,0.009-3.499l8.926-15.3c0.887-1.51,2.278-1.732,3.021-1.732
			c0.742,0,2.133,0.222,3.012,1.732l8.926,15.3C238.601,372.686,238.097,374.007,237.722,374.665z"/>
	</g>
</g>
<g>
	<g>
		<path d="M153.6,174.934c-18.825,0-34.133,15.309-34.133,34.133s15.308,34.134,34.133,34.134c18.825,0,34.133-15.309,34.133-34.133
			C187.733,190.243,172.425,174.934,153.6,174.934z M153.6,226.134c-9.412,0-17.067-7.654-17.067-17.067
			c0-9.413,7.655-17.066,17.067-17.066c9.412,0,17.067,7.654,17.067,17.067C170.667,218.48,163.012,226.134,153.6,226.134z"/>
	</g>
</g>
<g>
	<g>
		<path d="M153.6,226.134c-4.71,0-8.533,3.823-8.533,8.533v25.6c0,4.71,3.823,8.533,8.533,8.533c4.71,0,8.533-3.823,8.533-8.533
			v-25.6C162.133,229.957,158.31,226.134,153.6,226.134z"/>
	</g>
</g>
<g>
</g>
<g>
</g>
<g>
</g>
<g>
</g>
<g>
</g>
<g>
</g>
<g>
</g>
<g>
</g>
<g>
</g>
<g>
</g>
<g>
</g>
<g>
</g>
<g>
</g>
<g>
</g>
<g>
</g>
</svg>
